<svg width="840" height="728" viewBox="0 0 840 728" fill="none" xmlns="http://www.w3.org/2000/svg">
<path d="M594.6 407.82L599.3 446.13C599.92 451.22 600.45 456.77 597.72 461.13C595.13 465.24 590.27 467.2 586.49 470.24C574.08 480.24 575.21 499.35 579.49 514.69C583.77 530.03 589.93 546.51 583.98 561.27C581.52 567.36 577.18 572.49 573.98 578.21C568.49 587.985 566.315 599.275 567.78 610.39" stroke="#535461" stroke-width="2" stroke-miterlimit="10"/>
<path d="M610.89 416.71H584.41L589.05 400.82H604.93L610.89 416.71Z" fill="#3AD29F"/>
<path d="M604.93 401.479H589.05L579.78 396.189H614.2L604.93 401.479Z" fill="#535461"/>
<path opacity="0.1" d="M557.28 163.881C557.28 163.881 510.95 189.031 504.33 239.331Z" fill="white"/>
<path d="M596.5 408L575.982 389.297C503.11 323.128 455 279.346 455 225.929C455 182.147 489.243 148 532.825 148C557.446 148 581.076 159.477 596.5 177.471C611.923 159.477 635.554 148 660.175 148C703.757 148 738 182.147 738 225.929C738 279.346 689.89 323.128 617.017 389.297L596.5 408Z" fill="#3AD29F"/>
<path d="M552.678 250.781H557.982V277.99C557.982 281.01 557.309 283.523 555.965 285.531C554.621 287.538 552.835 289.048 550.606 290.061C548.396 291.055 545.993 291.552 543.397 291.552C540.671 291.552 538.204 291.055 535.994 290.061C533.802 289.048 532.062 287.538 530.773 285.531C529.503 283.523 528.867 281.01 528.867 277.99V250.781H534.143V277.99C534.143 280.089 534.53 281.82 535.303 283.183C536.077 284.545 537.154 285.558 538.535 286.221C539.935 286.884 541.555 287.216 543.397 287.216C545.257 287.216 546.877 286.884 548.258 286.221C549.658 285.558 550.744 284.545 551.518 283.183C552.291 281.82 552.678 280.089 552.678 277.99V250.781ZM587.787 280.835C587.787 279.896 587.639 279.067 587.345 278.349C587.068 277.612 586.571 276.949 585.853 276.36C585.153 275.771 584.177 275.209 582.925 274.675C581.691 274.141 580.126 273.598 578.229 273.045C576.24 272.456 574.445 271.802 572.843 271.084C571.241 270.347 569.869 269.509 568.727 268.57C567.585 267.631 566.71 266.554 566.103 265.338C565.495 264.123 565.191 262.733 565.191 261.167C565.191 259.602 565.513 258.157 566.158 256.831C566.802 255.505 567.723 254.354 568.92 253.378C570.136 252.383 571.581 251.61 573.257 251.057C574.933 250.505 576.802 250.229 578.864 250.229C581.884 250.229 584.444 250.809 586.544 251.969C588.661 253.111 590.273 254.612 591.378 256.472C592.482 258.313 593.035 260.283 593.035 262.383H587.731C587.731 260.873 587.409 259.538 586.765 258.378C586.12 257.199 585.144 256.278 583.836 255.615C582.529 254.934 580.872 254.593 578.864 254.593C576.968 254.593 575.402 254.879 574.169 255.449C572.935 256.02 572.014 256.794 571.406 257.77C570.817 258.746 570.522 259.86 570.522 261.112C570.522 261.959 570.697 262.733 571.047 263.432C571.415 264.114 571.977 264.749 572.732 265.338C573.506 265.928 574.482 266.471 575.66 266.968C576.857 267.465 578.284 267.944 579.942 268.405C582.225 269.049 584.196 269.767 585.853 270.559C587.51 271.351 588.873 272.244 589.941 273.239C591.028 274.215 591.829 275.329 592.344 276.581C592.878 277.815 593.145 279.214 593.145 280.78C593.145 282.419 592.814 283.901 592.151 285.227C591.488 286.553 590.54 287.685 589.306 288.624C588.072 289.564 586.59 290.291 584.859 290.807C583.146 291.304 581.231 291.552 579.113 291.552C577.253 291.552 575.421 291.295 573.616 290.779C571.83 290.263 570.2 289.49 568.727 288.459C567.272 287.427 566.103 286.157 565.219 284.647C564.353 283.118 563.92 281.35 563.92 279.343H569.224C569.224 280.724 569.491 281.912 570.025 282.907C570.559 283.883 571.287 284.693 572.207 285.337C573.146 285.982 574.205 286.461 575.384 286.774C576.581 287.068 577.824 287.216 579.113 287.216C580.973 287.216 582.547 286.958 583.836 286.442C585.126 285.927 586.102 285.19 586.765 284.232C587.446 283.275 587.787 282.142 587.787 280.835ZM626.21 268.073V272.41H604.443V268.073H626.21ZM605.272 250.781V291H599.941V250.781H605.272ZM630.85 250.781V291H625.547V250.781H630.85ZM655.711 254.345L642.397 291H636.955L652.286 250.781H655.794L655.711 254.345ZM666.871 291L653.529 254.345L653.446 250.781H656.954L672.34 291H666.871ZM666.18 276.111V280.476H643.585V276.111H666.18Z" fill="white"/>
</svg>
