<svg width="840" height="728" viewBox="0 0 840 728" fill="none" xmlns="http://www.w3.org/2000/svg">
<path d="M458.25 285.939C448.54 299.539 438.45 314.069 437.6 330.719C436.33 356.309 456.8 377.239 465.94 401.179C469.901 411.725 471.694 422.961 471.211 434.216C470.729 445.471 467.98 456.512 463.13 466.679C458.67 475.899 452.31 485.059 453.13 495.269C453.6 501.499 456.72 507.169 459.23 512.899C465.39 527.26 468.078 542.87 467.076 558.464C466.073 574.058 461.409 589.196 453.46 602.649" stroke="#535461" stroke-width="2" stroke-miterlimit="10"/>
<path d="M468.43 293.56H441.95L446.59 277.68H462.47L468.43 293.56Z" fill="#4D8AF0"/>
<path d="M462.47 278.339H446.59L437.32 273.039H471.74L462.47 278.339Z" fill="#535461"/>
<path opacity="0.1" d="M414.82 40.7402C414.82 40.7402 368.49 65.8902 361.87 116.19Z" fill="white"/>
<path d="M453.5 286L432.982 267.297C360.11 201.128 312 157.346 312 103.929C312 60.1471 346.243 26 389.825 26C414.446 26 438.076 37.4768 453.5 55.4714C468.923 37.4768 492.554 26 517.175 26C560.757 26 595 60.1471 595 103.929C595 157.346 546.89 201.128 474.017 267.297L453.5 286Z" fill="#6C63FF"/>
<path d="M406.678 115.781H411.982V142.99C411.982 146.01 411.309 148.523 409.965 150.531C408.621 152.538 406.835 154.048 404.606 155.061C402.396 156.055 399.993 156.552 397.397 156.552C394.671 156.552 392.204 156.055 389.994 155.061C387.802 154.048 386.062 152.538 384.773 150.531C383.503 148.523 382.867 146.01 382.867 142.99V115.781H388.143V142.99C388.143 145.089 388.53 146.82 389.303 148.183C390.077 149.545 391.154 150.558 392.535 151.221C393.935 151.884 395.555 152.216 397.397 152.216C399.257 152.216 400.877 151.884 402.258 151.221C403.658 150.558 404.744 149.545 405.518 148.183C406.291 146.82 406.678 145.089 406.678 142.99V115.781ZM424.688 130.808V156H419.578V126.112H424.55L424.688 130.808ZM434.025 125.946L433.997 130.698C433.573 130.605 433.168 130.55 432.782 130.532C432.413 130.495 431.99 130.477 431.511 130.477C430.332 130.477 429.292 130.661 428.39 131.029C427.487 131.397 426.723 131.913 426.097 132.576C425.471 133.239 424.973 134.031 424.605 134.951C424.255 135.854 424.025 136.848 423.915 137.935L422.478 138.763C422.478 136.959 422.653 135.265 423.003 133.681C423.371 132.097 423.933 130.698 424.688 129.482C425.443 128.248 426.401 127.291 427.561 126.609C428.739 125.91 430.139 125.56 431.759 125.56C432.128 125.56 432.551 125.606 433.03 125.698C433.509 125.771 433.84 125.854 434.025 125.946ZM456.15 148.072C456.15 147.336 455.985 146.654 455.653 146.028C455.34 145.384 454.686 144.804 453.692 144.288C452.716 143.754 451.243 143.294 449.272 142.907C447.615 142.557 446.114 142.143 444.77 141.664C443.444 141.185 442.311 140.605 441.372 139.924C440.451 139.242 439.742 138.441 439.245 137.52C438.748 136.6 438.499 135.522 438.499 134.289C438.499 133.11 438.757 131.996 439.273 130.946C439.807 129.896 440.553 128.967 441.51 128.156C442.486 127.346 443.656 126.711 445.018 126.25C446.381 125.79 447.9 125.56 449.576 125.56C451.97 125.56 454.014 125.983 455.708 126.83C457.403 127.677 458.701 128.81 459.603 130.228C460.506 131.628 460.957 133.184 460.957 134.896H455.847C455.847 134.068 455.598 133.266 455.101 132.493C454.622 131.701 453.913 131.047 452.974 130.532C452.053 130.016 450.92 129.758 449.576 129.758C448.158 129.758 447.007 129.979 446.123 130.421C445.258 130.845 444.622 131.388 444.217 132.051C443.831 132.714 443.637 133.414 443.637 134.15C443.637 134.703 443.729 135.2 443.914 135.642C444.116 136.066 444.466 136.461 444.963 136.83C445.46 137.18 446.16 137.511 447.063 137.824C447.965 138.137 449.116 138.45 450.515 138.763C452.965 139.316 454.981 139.979 456.565 140.752C458.148 141.526 459.327 142.474 460.1 143.597C460.874 144.721 461.261 146.083 461.261 147.686C461.261 148.993 460.984 150.19 460.432 151.277C459.898 152.363 459.115 153.302 458.084 154.094C457.071 154.867 455.856 155.475 454.438 155.917C453.038 156.341 451.464 156.552 449.714 156.552C447.081 156.552 444.853 156.083 443.03 155.144C441.206 154.205 439.825 152.989 438.886 151.497C437.947 150.006 437.477 148.431 437.477 146.774H442.615C442.689 148.174 443.094 149.288 443.831 150.116C444.567 150.927 445.47 151.507 446.538 151.857C447.606 152.188 448.665 152.354 449.714 152.354C451.114 152.354 452.283 152.17 453.222 151.801C454.18 151.433 454.907 150.927 455.405 150.282C455.902 149.638 456.15 148.901 456.15 148.072ZM473.083 113.571V156H467.973V113.571H473.083ZM471.868 139.924L469.741 139.841C469.759 137.797 470.063 135.909 470.652 134.178C471.242 132.429 472.07 130.909 473.138 129.62C474.206 128.331 475.477 127.337 476.95 126.637C478.442 125.919 480.09 125.56 481.895 125.56C483.368 125.56 484.694 125.762 485.872 126.167C487.051 126.554 488.055 127.18 488.883 128.046C489.73 128.911 490.375 130.035 490.817 131.416C491.259 132.778 491.48 134.445 491.48 136.415V156H486.342V136.36C486.342 134.795 486.112 133.543 485.652 132.604C485.191 131.646 484.519 130.955 483.635 130.532C482.751 130.09 481.665 129.869 480.376 129.869C479.105 129.869 477.945 130.136 476.895 130.67C475.864 131.204 474.971 131.941 474.216 132.88C473.479 133.819 472.899 134.896 472.475 136.112C472.07 137.309 471.868 138.579 471.868 139.924ZM516.755 150.89V135.504C516.755 134.325 516.515 133.303 516.037 132.438C515.576 131.554 514.876 130.872 513.937 130.394C512.998 129.915 511.838 129.676 510.457 129.676C509.168 129.676 508.035 129.896 507.059 130.338C506.102 130.78 505.347 131.36 504.794 132.079C504.26 132.797 503.993 133.57 503.993 134.399H498.883C498.883 133.331 499.159 132.272 499.711 131.222C500.264 130.173 501.056 129.224 502.087 128.377C503.137 127.512 504.389 126.83 505.844 126.333C507.317 125.818 508.956 125.56 510.761 125.56C512.934 125.56 514.849 125.928 516.506 126.665C518.182 127.401 519.489 128.515 520.429 130.007C521.386 131.48 521.865 133.331 521.865 135.559V149.481C521.865 150.475 521.948 151.534 522.114 152.658C522.298 153.781 522.565 154.748 522.915 155.558V156H517.583C517.326 155.411 517.123 154.628 516.976 153.652C516.828 152.658 516.755 151.737 516.755 150.89ZM517.639 137.879L517.694 141.47H512.528C511.074 141.47 509.775 141.59 508.634 141.83C507.492 142.051 506.534 142.391 505.761 142.852C504.987 143.312 504.398 143.892 503.993 144.592C503.588 145.273 503.385 146.074 503.385 146.995C503.385 147.934 503.597 148.79 504.021 149.564C504.444 150.337 505.08 150.954 505.927 151.415C506.792 151.857 507.851 152.078 509.103 152.078C510.669 152.078 512.05 151.746 513.247 151.083C514.444 150.42 515.392 149.61 516.092 148.652C516.81 147.695 517.197 146.765 517.252 145.862L519.434 148.321C519.305 149.094 518.955 149.951 518.384 150.89C517.814 151.829 517.049 152.731 516.092 153.597C515.153 154.444 514.029 155.153 512.722 155.724C511.433 156.276 509.978 156.552 508.357 156.552C506.332 156.552 504.555 156.157 503.026 155.365C501.516 154.573 500.338 153.514 499.491 152.188C498.662 150.844 498.247 149.343 498.247 147.686C498.247 146.083 498.561 144.675 499.187 143.459C499.813 142.225 500.715 141.203 501.894 140.393C503.072 139.564 504.49 138.938 506.148 138.515C507.805 138.091 509.656 137.879 511.7 137.879H517.639Z" fill="white"/>
</svg>
