<svg width="840" height="728" viewBox="0 0 840 728" fill="none" xmlns="http://www.w3.org/2000/svg">
<path d="M307.91 381.539C303.97 394.329 309.91 409.449 321.44 416.179C326.28 418.999 331.85 420.419 336.54 423.479C346.73 430.119 350.75 442.829 354.06 454.529C357.86 467.979 361.67 482.199 358.19 495.729C355.97 504.359 350.92 511.989 348.05 520.429C345.65 527.498 344.814 535.005 345.6 542.429C346.02 546.369 347 550.429 349.7 553.369C353.6 557.569 359.88 558.199 365.52 559.209C377.444 561.464 388.663 566.513 398.259 573.943C407.854 581.372 415.551 590.97 420.72 601.949" stroke="#535461" stroke-width="2" stroke-miterlimit="10"/>
<path d="M324.76 390.14H298.28L302.92 374.26H318.8L324.76 390.14Z" fill="#F55F44"/>
<path d="M318.8 374.921H302.92L293.65 369.631H328.07L318.8 374.921Z" fill="#535461"/>
<path opacity="0.1" d="M271.15 137.32C271.15 137.32 224.82 162.47 218.2 212.77Z" fill="white"/>
<path d="M310.5 382L289.982 363.297C217.11 297.128 169 253.346 169 199.929C169 156.147 203.243 122 246.825 122C271.446 122 295.076 133.477 310.5 151.471C325.923 133.477 349.554 122 374.175 122C417.757 122 452 156.147 452 199.929C452 253.346 403.89 297.128 331.017 363.297L310.5 382Z" fill="#F55F44"/>
<path d="M264.678 211.781H269.982V238.99C269.982 242.01 269.309 244.523 267.965 246.531C266.621 248.538 264.835 250.048 262.606 251.061C260.396 252.055 257.993 252.552 255.397 252.552C252.671 252.552 250.204 252.055 247.994 251.061C245.802 250.048 244.062 248.538 242.773 246.531C241.503 244.523 240.867 242.01 240.867 238.99V211.781H246.143V238.99C246.143 241.089 246.53 242.82 247.303 244.183C248.077 245.545 249.154 246.558 250.535 247.221C251.935 247.884 253.555 248.216 255.397 248.216C257.257 248.216 258.877 247.884 260.258 247.221C261.658 246.558 262.744 245.545 263.518 244.183C264.291 242.82 264.678 241.089 264.678 238.99V211.781ZM282.688 226.808V252H277.578V222.112H282.55L282.688 226.808ZM292.025 221.946L291.997 226.698C291.573 226.605 291.168 226.55 290.782 226.532C290.413 226.495 289.99 226.477 289.511 226.477C288.332 226.477 287.292 226.661 286.39 227.029C285.487 227.397 284.723 227.913 284.097 228.576C283.471 229.239 282.973 230.031 282.605 230.951C282.255 231.854 282.025 232.848 281.915 233.935L280.478 234.763C280.478 232.959 280.653 231.265 281.003 229.681C281.371 228.097 281.933 226.698 282.688 225.482C283.443 224.248 284.401 223.291 285.561 222.609C286.739 221.91 288.139 221.56 289.759 221.56C290.128 221.56 290.551 221.606 291.03 221.698C291.509 221.771 291.84 221.854 292.025 221.946ZM314.15 244.072C314.15 243.336 313.985 242.654 313.653 242.028C313.34 241.384 312.686 240.804 311.692 240.288C310.716 239.754 309.243 239.294 307.272 238.907C305.615 238.557 304.114 238.143 302.77 237.664C301.444 237.185 300.311 236.605 299.372 235.924C298.451 235.242 297.742 234.441 297.245 233.52C296.748 232.6 296.499 231.522 296.499 230.289C296.499 229.11 296.757 227.996 297.273 226.946C297.807 225.896 298.553 224.967 299.51 224.156C300.486 223.346 301.656 222.711 303.018 222.25C304.381 221.79 305.9 221.56 307.576 221.56C309.97 221.56 312.014 221.983 313.708 222.83C315.403 223.677 316.701 224.81 317.603 226.228C318.506 227.628 318.957 229.184 318.957 230.896H313.847C313.847 230.068 313.598 229.266 313.101 228.493C312.622 227.701 311.913 227.047 310.974 226.532C310.053 226.016 308.92 225.758 307.576 225.758C306.158 225.758 305.007 225.979 304.123 226.421C303.258 226.845 302.622 227.388 302.217 228.051C301.831 228.714 301.637 229.414 301.637 230.15C301.637 230.703 301.729 231.2 301.914 231.642C302.116 232.066 302.466 232.461 302.963 232.83C303.46 233.18 304.16 233.511 305.063 233.824C305.965 234.137 307.116 234.45 308.515 234.763C310.965 235.316 312.981 235.979 314.565 236.752C316.148 237.526 317.327 238.474 318.1 239.597C318.874 240.721 319.261 242.083 319.261 243.686C319.261 244.993 318.984 246.19 318.432 247.277C317.898 248.363 317.115 249.302 316.084 250.094C315.071 250.867 313.856 251.475 312.438 251.917C311.038 252.341 309.464 252.552 307.714 252.552C305.081 252.552 302.853 252.083 301.03 251.144C299.206 250.205 297.825 248.989 296.886 247.497C295.947 246.006 295.477 244.431 295.477 242.774H300.615C300.689 244.174 301.094 245.288 301.831 246.116C302.567 246.927 303.47 247.507 304.538 247.857C305.606 248.188 306.665 248.354 307.714 248.354C309.114 248.354 310.283 248.17 311.222 247.801C312.18 247.433 312.907 246.927 313.405 246.282C313.902 245.638 314.15 244.901 314.15 244.072ZM331.083 209.571V252H325.973V209.571H331.083ZM329.868 235.924L327.741 235.841C327.759 233.797 328.063 231.909 328.652 230.178C329.242 228.429 330.07 226.909 331.138 225.62C332.206 224.331 333.477 223.337 334.95 222.637C336.442 221.919 338.09 221.56 339.895 221.56C341.368 221.56 342.694 221.762 343.872 222.167C345.051 222.554 346.055 223.18 346.883 224.046C347.73 224.911 348.375 226.035 348.817 227.416C349.259 228.778 349.48 230.445 349.48 232.415V252H344.342V232.36C344.342 230.795 344.112 229.543 343.652 228.604C343.191 227.646 342.519 226.955 341.635 226.532C340.751 226.09 339.665 225.869 338.376 225.869C337.105 225.869 335.945 226.136 334.895 226.67C333.864 227.204 332.971 227.941 332.216 228.88C331.479 229.819 330.899 230.896 330.475 232.112C330.07 233.309 329.868 234.579 329.868 235.924ZM374.755 246.89V231.504C374.755 230.325 374.515 229.303 374.037 228.438C373.576 227.554 372.876 226.872 371.937 226.394C370.998 225.915 369.838 225.676 368.457 225.676C367.168 225.676 366.035 225.896 365.059 226.338C364.102 226.78 363.347 227.36 362.794 228.079C362.26 228.797 361.993 229.57 361.993 230.399H356.883C356.883 229.331 357.159 228.272 357.711 227.222C358.264 226.173 359.056 225.224 360.087 224.377C361.137 223.512 362.389 222.83 363.844 222.333C365.317 221.818 366.956 221.56 368.761 221.56C370.934 221.56 372.849 221.928 374.506 222.665C376.182 223.401 377.489 224.515 378.429 226.007C379.386 227.48 379.865 229.331 379.865 231.559V245.481C379.865 246.475 379.948 247.534 380.114 248.658C380.298 249.781 380.565 250.748 380.915 251.558V252H375.583C375.326 251.411 375.123 250.628 374.976 249.652C374.828 248.658 374.755 247.737 374.755 246.89ZM375.639 233.879L375.694 237.47H370.528C369.074 237.47 367.775 237.59 366.634 237.83C365.492 238.051 364.534 238.391 363.761 238.852C362.987 239.312 362.398 239.892 361.993 240.592C361.588 241.273 361.385 242.074 361.385 242.995C361.385 243.934 361.597 244.79 362.021 245.564C362.444 246.337 363.08 246.954 363.927 247.415C364.792 247.857 365.851 248.078 367.103 248.078C368.669 248.078 370.05 247.746 371.247 247.083C372.444 246.42 373.392 245.61 374.092 244.652C374.81 243.695 375.197 242.765 375.252 241.862L377.434 244.321C377.305 245.094 376.955 245.951 376.384 246.89C375.814 247.829 375.049 248.731 374.092 249.597C373.153 250.444 372.029 251.153 370.722 251.724C369.433 252.276 367.978 252.552 366.357 252.552C364.332 252.552 362.555 252.157 361.026 251.365C359.516 250.573 358.338 249.514 357.491 248.188C356.662 246.844 356.247 245.343 356.247 243.686C356.247 242.083 356.561 240.675 357.187 239.459C357.813 238.225 358.715 237.203 359.894 236.393C361.072 235.564 362.49 234.938 364.148 234.515C365.805 234.091 367.656 233.879 369.7 233.879H375.639Z" fill="white"/>
</svg>
